<svg viewBox="0 0 512 512" xmlns="http://www.w3.org/2000/svg" role="img">
<title>Developer with laptop icon</title>
<desc>Monocolor black silhouette of a person behind a laptop, with transparent cutouts for the laptop outline and code brackets.</desc>

<defs>
<mask id="cutouts">
<rect x="0" y="0" width="512" height="512" fill="white"/>

<path d="M 144 312 L 368 312 L 354 434 L 158 434 Z" fill="black"/>
<path d="M 150 318 L 362 318 L 348 428 L 164 428 Z" fill="white"/>

<rect x="155" y="434" width="202" height="28" fill="black"/>
<rect x="159" y="438" width="194" height="20" fill="white"/>

<path d="M 210 348 L 188 376 L 210 404 L 220 396 L 202 376 L 220 356 Z" fill="black"/>
<path d="M 252 404 L 240 404 L 268 348 L 280 348 Z" fill="black"/>
<path d="M 302 356 L 320 376 L 302 396 L 312 404 L 334 376 L 312 348 Z" fill="black"/>

<rect x="226" y="452" width="60" height="6" rx="2" fill="black"/>
</mask>
</defs>

<g mask="url(#cutouts)">
<circle cx="256" cy="124" r="72" fill="#000000"/>

<path d="M 256 212
         C 334 212, 402 282, 412 330
         C 422 360, 422 390, 408 410
         C 396 425, 378 430, 362 432
         L 358 434
         L 154 434
         L 150 432
         C 134 430, 116 425, 104 410
         C 90 390, 90 360, 100 330
         C 110 282, 178 212, 256 212
         Z" fill="#000000"/>

<path d="M 150 318 L 362 318 L 348 428 L 164 428 Z" fill="#000000"/>

<rect x="159" y="438" width="194" height="20" fill="#000000"/>
</g>
</svg>
