<svg xmlns="http://www.w3.org/2000/svg" viewBox="0 0 480 480" fill="#000">
  <!-- Geometric fedora: trapezoidal crown -->
  <polygon points="180,165 175,95 305,95 300,165"/>
  <!-- Hat band -->
  <rect x="178" y="158" width="124" height="8" fill="#fff"/>
  <!-- Rectangular brim -->
  <rect x="105" y="165" width="270" height="14"/>
  <!-- Block head + body -->
  <path d="M190 225 L190 175 L290 175 L290 225 L290 255 L370 255 L370 350 L110 350 L110 255 L190 255 Z"/>
  <!-- Block collar V's -->
  <polygon points="190,257 215,325 240,267" fill="#fff"/>
  <polygon points="290,257 265,325 240,267" fill="#fff"/>
  <!-- Trapezoid laptop screen -->
  <polygon points="60,335 420,335 395,455 85,455"/>
  <polygon points="78,348 402,348 380,442 100,442" fill="#fff"/>
  <rect x="235" y="393" width="10" height="10"/>
  <!-- Keyboard base: matches bottom edge of screen -->
  <polygon points="85,455 395,455 395,478 85,478"/>
  <rect x="220" y="463" width="40" height="7" fill="#fff"/>
</svg>
