<svg xmlns="http://www.w3.org/2000/svg" width="256" height="256" viewBox="0 0 256 256">
  <defs>
    <mask id="leftEyeMask" maskUnits="userSpaceOnUse">
      <rect x="88" y="138" width="24" height="36" rx="12" fill="#ffffff"/>
      <rect x="98" y="142" width="4" height="28" rx="2" fill="#000000"/>
    </mask>
    <mask id="rightEyeMask" maskUnits="userSpaceOnUse">
      <rect x="144" y="138" width="24" height="36" rx="12" fill="#ffffff"/>
      <rect x="154" y="142" width="4" height="28" rx="2" fill="#000000"/>
    </mask>
  </defs>
  <circle cx="128" cy="24" r="10" fill="none" stroke="#000000" stroke-width="6"/>
  <rect x="125" y="34" width="6" height="20" fill="#000000"/>
  <path d="M70,90 Q40,30 75,15 Q60,55 88,82 Z" fill="#000000"/>
  <path d="M186,90 Q216,30 181,15 Q196,55 168,82 Z" fill="#000000"/>
  <path fill-rule="evenodd" fill="#000000" d="M40,144a88,88,0,0,1,176,0v44a44,44,0,0,1-44,44H84a44,44,0,0,1-44-44Z M92,116 h72 a28,28 0 0 1 28,28 v24 a28,28 0 0 1 -28,28 h-72 a28,28 0 0 1 -28,-28 v-24 a28,28 0 0 1 28,-28 z"/>
  <path d="M205,225 Q240,240 240,205 Q238,180 220,180" stroke="#000000" stroke-width="7" fill="none" stroke-linecap="round"/>
  <polygon points="220,180 230,168 210,168" fill="#000000"/>
  <rect x="88" y="138" width="24" height="36" rx="12" fill="#000000" mask="url(#leftEyeMask)"/>
  <rect x="144" y="138" width="24" height="36" rx="12" fill="#000000" mask="url(#rightEyeMask)"/>
  <polygon points="78,124 116,134 116,138 78,128" fill="#000000"/>
  <polygon points="140,134 178,124 178,128 140,138" fill="#000000"/>
</svg>
