<svg xmlns="http://www.w3.org/2000/svg" width="256" height="256" viewBox="0 0 256 256" fill="#000000">
  <circle cx="128" cy="24" r="10" fill="none" stroke="#000000" stroke-width="6"/>
  <rect x="125" y="34" width="6" height="20"/>
  <path fill-rule="evenodd" d="M40,144a88,88,0,0,1,176,0v44a44,44,0,0,1-44,44H84a44,44,0,0,1-44-44Z M92,116 h72 a28,28 0 0 1 28,28 v24 a28,28 0 0 1 -28,28 h-72 a28,28 0 0 1 -28,-28 v-24 a28,28 0 0 1 28,-28 z"/>
  <rect x="88" y="138" width="24" height="36" rx="12" fill="#000000"/>
  <rect x="144" y="138" width="24" height="36" rx="12" fill="#000000"/>
</svg>
